<svg xmlns="http://www.w3.org/2000/svg" xmlns:xlink="http://www.w3.org/1999/xlink" viewBox="0 0 285.47 72"><defs><style>.cls-1,.cls-2{fill:none;}.cls-2{stroke:#fcd600;stroke-miterlimit:10;stroke-width:7px;}.cls-3{fill:url(#KOJO_Chainmail);}</style><pattern id="KOJO_Chainmail" data-name="KOJO Chainmail" width="107" height="95.92" patternUnits="userSpaceOnUse" viewBox="0 0 107 95.92"><rect class="cls-1" width="107" height="95.92"/><path class="cls-2" d="M93,97.14v4.77c0,9,18,9,18,0s18-9,18,0,18,9,18,0,18-9,18,0,18,9,18,0,18-9,18,0,18,9,18,0c0,0,0-6.76,9-6.76"/><path class="cls-2" d="M228,94.69V89.93c0-9-18-9-18,0s-18,9-18,0-18-9-18,0-18,9-18,0-18-9-18,0-18,9-18,0-18-9-18,0c0,0,0,6.75-9,6.75"/><path class="cls-2" d="M-14,97.14v4.77c0,9,18,9,18,0s18-9,18,0,18,9,18,0,18-9,18,0,18,9,18,0,18-9,18,0,18,9,18,0c0,0,0-6.76,9-6.76"/><path class="cls-2" d="M121,94.69V89.93c0-9-18-9-18,0s-18,9-18,0-18-9-18,0-18,9-18,0-18-9-18,0-18,9-18,0-18-9-18,0c0,0,0,6.75-9,6.75"/><path class="cls-2" d="M-121,97.14v4.77c0,9,18,9,18,0s18-9,18,0,18,9,18,0,18-9,18,0,18,9,18,0,18-9,18,0,18,9,18,0c0,0,0-6.76,9-6.76"/><path class="cls-2" d="M14,94.69V89.93c0-9-18-9-18,0s-18,9-18,0-18-9-18,0-18,9-18,0-18-9-18,0-18,9-18,0-18-9-18,0c0,0,0,6.75-9,6.75"/><path class="cls-2" d="M93,73.16v4.77c0,9,18,9,18,0s18-9,18,0,18,9,18,0,18-9,18,0,18,9,18,0,18-9,18,0,18,9,18,0c0,0,0-6.76,9-6.76"/><path class="cls-2" d="M228,70.71V66c0-9-18-9-18,0s-18,9-18,0-18-9-18,0-18,9-18,0-18-9-18,0-18,9-18,0-18-9-18,0c0,0,0,6.75-9,6.75"/><path class="cls-2" d="M-14,73.16v4.77c0,9,18,9,18,0s18-9,18,0,18,9,18,0,18-9,18,0,18,9,18,0,18-9,18,0,18,9,18,0c0,0,0-6.76,9-6.76"/><path class="cls-2" d="M121,70.71V66c0-9-18-9-18,0s-18,9-18,0-18-9-18,0-18,9-18,0-18-9-18,0-18,9-18,0S-5,57-5,66c0,0,0,6.75-9,6.75"/><path class="cls-2" d="M-121,73.16v4.77c0,9,18,9,18,0s18-9,18,0,18,9,18,0,18-9,18,0,18,9,18,0,18-9,18,0,18,9,18,0c0,0,0-6.76,9-6.76"/><path class="cls-2" d="M14,70.71V66c0-9-18-9-18,0s-18,9-18,0-18-9-18,0-18,9-18,0-18-9-18,0-18,9-18,0-18-9-18,0c0,0,0,6.75-9,6.75"/><path class="cls-2" d="M93,49.18V54c0,9,18,9,18,0s18-9,18,0,18,9,18,0,18-9,18,0,18,9,18,0,18-9,18,0,18,9,18,0c0,0,0-6.76,9-6.76"/><path class="cls-2" d="M228,46.73V42c0-9-18-9-18,0s-18,9-18,0-18-9-18,0-18,9-18,0-18-9-18,0-18,9-18,0-18-9-18,0c0,0,0,6.75-9,6.75"/><path class="cls-2" d="M-14,49.18V54c0,9,18,9,18,0s18-9,18,0,18,9,18,0,18-9,18,0,18,9,18,0,18-9,18,0,18,9,18,0c0,0,0-6.76,9-6.76"/><path class="cls-2" d="M121,46.73V42c0-9-18-9-18,0s-18,9-18,0-18-9-18,0-18,9-18,0-18-9-18,0-18,9-18,0S-5,33-5,42c0,0,0,6.75-9,6.75"/><path class="cls-2" d="M-121,49.18V54c0,9,18,9,18,0s18-9,18,0,18,9,18,0,18-9,18,0,18,9,18,0,18-9,18,0S5,63,5,54c0,0,0-6.76,9-6.76"/><path class="cls-2" d="M14,46.73V42c0-9-18-9-18,0s-18,9-18,0-18-9-18,0-18,9-18,0-18-9-18,0-18,9-18,0-18-9-18,0c0,0,0,6.75-9,6.75"/><path class="cls-2" d="M93,25.2V30c0,9,18,9,18,0s18-9,18,0,18,9,18,0,18-9,18,0,18,9,18,0,18-9,18,0,18,9,18,0c0,0,0-6.75,9-6.75"/><path class="cls-2" d="M228,22.76V18c0-9-18-9-18,0s-18,9-18,0-18-9-18,0-18,9-18,0-18-9-18,0-18,9-18,0-18-9-18,0c0,0,0,6.75-9,6.75"/><path class="cls-2" d="M-14,25.2V30c0,9,18,9,18,0s18-9,18,0,18,9,18,0,18-9,18,0,18,9,18,0,18-9,18,0,18,9,18,0c0,0,0-6.75,9-6.75"/><path class="cls-2" d="M121,22.76V18c0-9-18-9-18,0s-18,9-18,0S67,9,67,18s-18,9-18,0S31,9,31,18s-18,9-18,0S-5,9-5,18c0,0,0,6.75-9,6.75"/><path class="cls-2" d="M-121,25.2V30c0,9,18,9,18,0s18-9,18,0,18,9,18,0,18-9,18,0,18,9,18,0,18-9,18,0S5,39,5,30c0,0,0-6.75,9-6.75"/><path class="cls-2" d="M14,22.76V18C14,9-4,9-4,18s-18,9-18,0-18-9-18,0-18,9-18,0-18-9-18,0-18,9-18,0-18-9-18,0c0,0,0,6.75-9,6.75"/><path class="cls-2" d="M93,1.22V6c0,9,18,9,18,0s18-9,18,0,18,9,18,0,18-9,18,0,18,9,18,0,18-9,18,0,18,9,18,0c0,0,0-6.75,9-6.75"/><path class="cls-2" d="M228-1.22V-6c0-9-18-9-18,0s-18,9-18,0-18-9-18,0-18,9-18,0-18-9-18,0-18,9-18,0-18-9-18,0c0,0,0,6.75-9,6.75"/><path class="cls-2" d="M-14,1.22V6c0,9,18,9,18,0S22-3,22,6s18,9,18,0S58-3,58,6s18,9,18,0S94-3,94,6s18,9,18,0c0,0,0-6.75,9-6.75"/><path class="cls-2" d="M121-1.22V-6c0-9-18-9-18,0S85,3,85-6,67-15,67-6,49,3,49-6,31-15,31-6,13,3,13-6-5-15-5-6C-5-6-5,.76-14,.76"/><path class="cls-2" d="M-121,1.22V6c0,9,18,9,18,0s18-9,18,0,18,9,18,0,18-9,18,0,18,9,18,0,18-9,18,0S5,15,5,6C5,6,5-.76,14-.76"/><path class="cls-2" d="M14-1.22V-6c0-9-18-9-18,0S-22,3-22-6s-18-9-18,0S-58,3-58-6s-18-9-18,0S-94,3-94-6s-18-9-18,0c0,0,0,6.75-9,6.75"/><line class="cls-2" x1="-14" y1="49.18" x2="-17.5" y2="49.18"/><line class="cls-2" x1="121" y1="46.73" x2="121" y2="50.69"/><line class="cls-2" x1="-14" y1="45.7" x2="-14" y2="45.21"/></pattern></defs><g id="Layer_2" data-name="Layer 2"><g id="Layer_1-2" data-name="Layer 1"><rect class="cls-3" width="285.47" height="72"/></g></g></svg>