<svg id="Layer_3" data-name="Layer 3" xmlns="http://www.w3.org/2000/svg" viewBox="0 0 597.54 621.98"><defs><style>.cls-1,.cls-3,.cls-4,.cls-5,.cls-6{fill:#fcfcfc;}.cls-2{fill:#fd0;}.cls-3,.cls-4,.cls-5,.cls-6,.cls-7{stroke:#fd0;stroke-miterlimit:10;}.cls-3,.cls-4,.cls-6,.cls-7{stroke-linecap:round;}.cls-3,.cls-7{stroke-width:14px;}.cls-4{stroke-width:5px;}.cls-5{stroke-width:23px;}.cls-6{stroke-width:4px;}.cls-7{fill:none;}</style></defs><path class="cls-1" d="M1397.61,278.52q-1.45-29.46-2.92-58.91l-2.87-57.92a39.89,39.89,0,0,0-3.67-23c-3.72-7.85-14.62-11.45-22.59-9.19-9.91,2.8-19.22,7.45-28.17,12.47-3.51,2-7,4-10.54,5.88-2,1.09-4.1,2.06-6.14,3.11l-1.61.73c-.67.27-1.33.54-2,.79-17.5,6.62-36.24,9.79-54.47,13.74L1143.77,192a17,17,0,0,0-7,3.46q-3.6.67-7.23,1.25c-.29,0-6.43.82-2.27.35-2.54.28-5.07.58-7.62.82a247.64,247.64,0,0,1-28.7.89c-10.46-.26-20.47,9.39-20,20a22.21,22.21,0,0,0,1.54,7.17c-1.11.53-2.21,1.09-3.29,1.68a20.75,20.75,0,0,0-25-1.07c-5.4-1.28-10.48-1.68-15.29-.65a16.63,16.63,0,0,0-1.83-.53c-11-2.52-21,3.34-24.6,14l-10.32,30.76a16.1,16.1,0,0,0-.8,4.28,59.62,59.62,0,0,0-8.09,10.26,25.86,25.86,0,0,0-2.89,19.64,18.82,18.82,0,0,0-5.55.69L968,306.88a21.46,21.46,0,0,0-16.15,1.57c-4.27,2.15-8.62,4.09-13,6.11l-.09,0c-14.46-4.08-32.44-.93-46.58,2.5a18.21,18.21,0,0,0-8.46,4.82c-8.2,2.49-14.9,10.28-14.5,19.16a21.64,21.64,0,0,0,.58,4.12l.57,4.28a19.92,19.92,0,0,0,5.15,8.82l.88.89a20.59,20.59,0,0,0,28.28,0l3.1-4a19.23,19.23,0,0,0-1.46,3.8,24.1,24.1,0,0,0-.75,4.56,23.37,23.37,0,0,0-2.2,15.38c5.11,30.13,22.41,56.11,40.51,80,8.92,11.77,18.12,23.34,26.42,35.56,8.42,12.4,15.9,25.4,24.21,37.86,9.87,14.8,20.87,29.24,34.83,40.41,6.05,4.84,12.33,6.47,18.57,5,2-3.55,4.82-6.45,6.71-10.07,2.24-4.31,4.84-8.38,7-12.71,2.75-5.43,10.6-1.2,9,4.11a35,35,0,0,0,9.6,9.82c.35.24.73.47,1.09.71.69,1.75,1.39,3.49,2.08,5.24a26.35,26.35,0,0,0,5.65,8.74c3.64,6.47,7.06,13.08,10.21,19.82,1.13,2.42,2.22,4.87,3.3,7.32l.18.4c.64,1.56,1.28,3.13,1.89,4.71q3.11,7.88,5.75,15.94c1.64,5,2.82,10.25,4.75,15.16,4,10.05,11.75,18.36,23.29,18.53a23.38,23.38,0,0,0,9.79-1.82,20.54,20.54,0,0,0,17.49,10.6c9.47.46,18.18-3,25.72-8.36a20.31,20.31,0,0,0,3.76-1.07,59.2,59.2,0,0,0,7.92-1.71,161,161,0,0,0,50.61-24,25.4,25.4,0,0,0,6.29-6.34c2.06-1.2,4.09-2.43,6.09-3.71,8.51-5.44,18.32-5.74,24.49-13.81,2.72.45,3.58,2.1,6.56,1.54.69-.13,2.88.8,3.57.66.93,1.35.79-6.63,2-5.61,6,5,14.58,7.27,21.75,4.49a16.73,16.73,0,0,0,6.19-.74c10.91-3.53,16.19-13.59,14-24.6q-7.28-36.22-14.78-72.41c-2.24-10.83-4-21.94-6.81-32.65a20,20,0,0,0,12.86.76c8.85-2.86,14-10.13,14.68-19.28.8-10.73,1.61-21.46,2.59-32.17,12.07-18.54,15.59-42.43,13.67-64.22a25.86,25.86,0,0,0-2-7.9c0-.44,0-.87.06-1.31,2.31-1.59,4.52-3.25,6.61-5a65.58,65.58,0,0,0,23.16-41.22,34.91,34.91,0,0,0,2.49-6.69C1399.75,299.19,1398.1,288.4,1397.61,278.52Zm-355.09,5.72-7,2.51.42-.39c1.54-1.4,3.12-2.76,4.69-4.13C1041.25,282.93,1041.87,283.6,1042.52,284.24Z" transform="translate(-853.82 -61.04)"/><path class="cls-1" d="M1451.34,663l-6.92-218.1c-2.24-70.48-4.37-141.08-12.4-211.19-4.66-40.69-11.1-81.19-20.58-121.06a18.24,18.24,0,0,0-7.08-10.44c-2.08-6.24-6.48-11.63-12.7-13.59a44.9,44.9,0,0,0-16-16.42c-15.16-9-33.8-8.51-50.83-9.11l-57.59-2.05c-10.47-.37-20.47,9.47-20,20,.5,11.16,8.79,19.6,20,20l50.64,1.8c7.78.28,15.58.43,23.35.87,1,.06,2.06.15,3.08.24a22.22,22.22,0,0,0-5.9,13.88c-1.67,21,2.85,41.39,11.36,60.53,2.42,5.45,8.91,9,15.23,9.77.91,44.66,3.68,89.29,7.2,133.81.1,1.27.21,2.55.31,3.82-8.53,22.32-19,44-25.35,67.05a197.91,197.91,0,0,0-5.26,27.52c-.53,4.12-1,8.24-1.44,12.37-.09.85-.2,1.7-.3,2.55-.38,2.42-.77,4.84-1.28,7.23a88.48,88.48,0,0,1-3.28,11.41c-.6,1.67-1.25,3.33-1.91,5l-.08.18c-.47,1.07-.93,2.15-1.4,3.22-.57,1.3-1.15,2.6-1.72,3.91a34.19,34.19,0,0,0-9.94-1.77c-10.23-.31-20.77,9.44-20,20,1.62,22,9.24,41.82,17.19,62.14l.4,1.05q.6,5.48,1.45,10.93.93,19.23,1.51,38.48.17,6,.3,12l-26.06,3.2L1232.09,620q-13.56,1.07-27.1,2.27a24.64,24.64,0,0,0-7.87,2l-41,5c-10.35,1.27-20.53,8.29-20,20,.45,10.07,8.83,21,20,20q49.56-4.29,99-10,30.29-1,60.6-.2c17.39.51,34.88,1.17,52.18,3.07,1.08.12,7.11.43,2.07.23a42.63,42.63,0,0,1,5.7,1c3.75.71,7.48,1.56,11.15,2.63q2.73.79,5.41,1.75c.64.23,1.27.48,1.9.72l0,0a115.66,115.66,0,0,1,10.52,6.07,17,17,0,0,0,12.81,2.73,18.16,18.16,0,0,0,13.83,5.72C1441.9,682.53,1451.7,674.21,1451.34,663Z" transform="translate(-853.82 -61.04)"/><path class="cls-1" d="M861.69,316.43c88.77,87.18,316.44,62.45,348.09,28a42.75,42.75,0,0,0,11.86-30.91,15.07,15.07,0,0,1,12.76-15l43.47-6.81a10,10,0,0,1,11.52,9l7.77,85.37a10.06,10.06,0,0,1-7.14,10.53c-108.71,32.68-202,122.91-227.33,160.67l-22.83,34c-14.11,21-95.86-110.88-107-127.16-22-32-56.14-88.66-72-145.32" transform="translate(-853.82 -61.04)"/><path class="cls-2" d="M866.59,311.44a146,146,0,0,0,29.21,22.71,212.57,212.57,0,0,0,34,16.18,297.07,297.07,0,0,0,36.43,11,370,370,0,0,0,37.67,6.81,480.53,480.53,0,0,0,76.72,3.64q19.24-.58,38.39-2.67a369.51,369.51,0,0,0,38-6c6.25-1.36,12.46-2.91,18.55-4.73a141.74,141.74,0,0,0,17.82-6.52,69.89,69.89,0,0,0,8.22-4.36,38,38,0,0,0,3.68-2.61c.57-.47,1.12-1,1.65-1.45.26-.24.5-.5.75-.75s.51-.57.76-.85a40.32,40.32,0,0,0,9-15.65,41.44,41.44,0,0,0,1.58-9c0-.77.11-1.53.11-2.31l0-1.15.05-1.38a17.57,17.57,0,0,1,13.73-16c.45-.09,1-.2,1.35-.26l1.2-.18,2.4-.37,38.34-5.83,1.2-.18c.41-.06,1-.11,1.43-.15a12.68,12.68,0,0,1,3,.22,12.23,12.23,0,0,1,5.32,2.48,12.46,12.46,0,0,1,3.55,4.67,12.73,12.73,0,0,1,.82,2.83c.17,1,.19,1.74.27,2.57l1.67,19.32,3.39,38.63,1.72,19.32.44,4.83c.06.83.15,1.53.18,2.56a11.5,11.5,0,0,1-.31,2.86,12.06,12.06,0,0,1-7.23,8.41c-1,.35-1.68.56-2.45.81l-2.29.73-4.59,1.47c-3.07,1-6.07,2.12-9.11,3.17s-6,2.27-9,3.41-6,2.39-8.93,3.64a445.16,445.16,0,0,0-67.89,36.55q-16.18,10.51-31.52,22.27t-29.85,24.45q-14.49,12.73-28,26.5-6.73,6.89-13.12,14.06t-12.26,14.71c-1,1.25-1.94,2.51-2.87,3.8s-1.86,2.55-2.73,3.86l-1.34,2-1.33,2-2.67,4-10.67,16.19-5.34,8.09-1.33,2-.67,1c-.24.35-.38.59-.84,1.21a8.72,8.72,0,0,1-3.37,2.73,9.21,9.21,0,0,1-4.2.78,15.62,15.62,0,0,1-6.24-1.85,34.87,34.87,0,0,1-4.67-2.89,79.54,79.54,0,0,1-7.81-6.64A197.72,197.72,0,0,1,1003,571.69c-4.25-5-8.33-10.07-12.33-15.22-8-10.3-15.61-20.82-23.08-31.43s-14.76-21.34-22-32.11l-10.75-16.16-5.35-8-5.5-8a645.83,645.83,0,0,1-40-67.21c-11.93-23.25-22.4-47.42-29.86-72.83a7,7,0,0,1,13.44-4l0,.12,0,.06c6.57,24.39,16.2,48.12,27.37,71.1A627.37,627.37,0,0,0,933,454.75l5.36,8.09,5.27,8.21,10.43,16.32c7,10.83,14.08,21.6,21.33,32.25s14.64,21.17,22.34,31.43c3.85,5.12,7.78,10.18,11.84,15.1s8.25,9.7,12.68,14.08a69.39,69.39,0,0,0,6.86,6,25.56,25.56,0,0,0,3.52,2.28,8.26,8.26,0,0,0,2.94,1,1.36,1.36,0,0,0,.53-.05c.07,0,.16-.06.35-.29,0,0,.33-.47.54-.78l.69-1,1.36-2,5.47-8,10.93-16,2.74-4,1.36-2,1.44-2q1.43-2.05,2.94-4c1-1.33,2-2.62,3-3.9q6.16-7.69,12.81-14.87t13.57-14.07q13.88-13.72,28.76-26.34A574.51,574.51,0,0,1,1184.78,444a459.07,459.07,0,0,1,68.88-36.23c3-1.26,6-2.53,9-3.67s6-2.39,9.13-3.43,6.11-2.21,9.21-3.18l4.65-1.47,2.32-.74c.77-.24,1.6-.5,2.16-.7a8.14,8.14,0,0,0,4.91-5.74,7.9,7.9,0,0,0,.21-1.94c0-.59-.12-1.5-.19-2.28l-.44-4.82-1.8-19.31-3.64-38.61-1.84-19.3a8.12,8.12,0,0,0-10.51-8.37l-38.29,6.17-2.39.39-1.2.19c-.4.07-.68.14-1,.21a13,13,0,0,0-3.74,1.52,12.55,12.55,0,0,0-6,10l0,1.05V315c0,.84,0,1.69-.07,2.54a47.3,47.3,0,0,1-1.65,10.11,45.75,45.75,0,0,1-9.9,17.85c-.28.32-.54.64-.84,1s-.62.66-1,1c-.64.63-1.3,1.22-2,1.78a44.52,44.52,0,0,1-4.18,3.05,74,74,0,0,1-8.83,4.85,149.06,149.06,0,0,1-18.48,7.06c-6.26,2-12.59,3.63-19,5.11a449.39,449.39,0,0,1-77.42,10.22,506.24,506.24,0,0,1-78.14-2.05c-25.95-2.85-51.87-7.69-76.89-16.29a224.4,224.4,0,0,1-36.42-16.06,162.23,162.23,0,0,1-32.71-23.65,7,7,0,0,1,9.63-10.17Z" transform="translate(-853.82 -61.04)"/><path class="cls-1" d="M860.84,318.84c1.15-9.31,14.35.2,34.9-2.26.29,0,.58-.11.88-.14,30.83-3.1,60.88-11.91,71.25-16.81,2.71-1.28,5.27-2.82,6.46-5.58,8.9-20.62,47-108,51.43-100.49,43.14,73.26,296.64,77.89,345.85,12" transform="translate(-853.82 -61.04)"/><path class="cls-2" d="M853.9,318a14.86,14.86,0,0,1,.44-2.28A12.45,12.45,0,0,1,855.5,313a10.52,10.52,0,0,1,2.29-2.7,10.83,10.83,0,0,1,2.91-1.75,14,14,0,0,1,4.68-1,26.16,26.16,0,0,1,3.29.09c1.93.17,3.58.42,5.17.65l4.58.67a73.85,73.85,0,0,0,8.62.72c1.41,0,2.81,0,4.2-.07.69,0,1.39-.1,2.08-.16l1-.11.51-.06c-.22,0-.22,0,.17,0,.19,0,.46-.08.82-.12l.31,0,.57-.07,1.15-.13,2.29-.27c1.52-.17,3.05-.41,4.57-.62s3-.43,4.57-.69,3.05-.47,4.57-.76c6.08-1.06,12.14-2.26,18.16-3.67s12-3,17.85-4.74c2.93-.89,5.83-1.83,8.63-2.85l2.09-.78,2-.8a37.33,37.33,0,0,0,3.46-1.63,4.22,4.22,0,0,0,1.31-1l0,0h0l.22-.51.94-2.19,3.8-8.73,7.77-17.39c5.25-11.56,10.54-23.11,16.15-34.57,2.8-5.73,5.65-11.44,8.65-17.14,1.5-2.85,3-5.69,4.65-8.54s3.29-5.68,5.34-8.63c.52-.74,1.07-1.49,1.72-2.29a18.79,18.79,0,0,1,2.6-2.72c.17-.14.32-.27.55-.43a7.12,7.12,0,0,1,.71-.49,9.25,9.25,0,0,1,2.43-1.07,8.45,8.45,0,0,1,1-.21,9.44,9.44,0,0,1,1.3-.07,7.82,7.82,0,0,1,3,.71,8.06,8.06,0,0,1,3.51,3.22c.36.58.69,1.18,1.06,1.75a53.87,53.87,0,0,0,5.07,6.65,76.08,76.08,0,0,0,13.11,11.42c9.73,6.81,20.83,12.1,32.3,16.46a271,271,0,0,0,35.56,10.53c12.12,2.76,24.43,4.87,36.83,6.45a482.17,482.17,0,0,0,75,3.64c25-.77,50.08-3.51,74.41-9.22a190.43,190.43,0,0,0,35.37-11.85,108.34,108.34,0,0,0,16.1-9.12A62.09,62.09,0,0,0,1370,204.36l0,0a2,2,0,0,1,3.19,2.41,66,66,0,0,1-13.82,13.85,107.89,107.89,0,0,1-16.53,10.19,196.21,196.21,0,0,1-36.06,13.52,311.35,311.35,0,0,1-37.58,7.8c-12.65,1.87-25.37,3.13-38.13,3.88s-25.54,1-38.33.7-25.57-1-38.31-2.41-25.44-3.27-38-5.88a282.37,282.37,0,0,1-37.4-10.26,191.89,191.89,0,0,1-18.15-7.47,135.54,135.54,0,0,1-17.36-9.79,89.51,89.51,0,0,1-15.7-13.17,67.18,67.18,0,0,1-6.6-8.3c-.5-.74-1-1.51-1.44-2.27a6,6,0,0,0,2.68,2.39,6.2,6.2,0,0,0,2.46.58,5.54,5.54,0,0,0,1-.06,4.36,4.36,0,0,0,.72-.14,4.91,4.91,0,0,0,1.36-.57l.22-.15.09-.07c.07-.07-.31.33-.63.75s-.73,1-1.1,1.53c-1.54,2.26-3.07,4.91-4.54,7.57s-2.91,5.42-4.32,8.18c-2.82,5.54-5.55,11.19-8.23,16.86q-8,17.06-15.68,34.35l-7.61,17.33-3.78,8.67-.94,2.16-.25.58c-.17.36-.33.71-.52,1.06a15,15,0,0,1-1.24,1.95,18.92,18.92,0,0,1-5.93,5.05,48.93,48.93,0,0,1-5.11,2.43l-2.4,1-2.36.87c-3.15,1.14-6.27,2.15-9.4,3.09-6.25,1.88-12.52,3.52-18.83,5s-12.65,2.75-19,3.77c-1.6.28-3.21.5-4.81.74s-3.21.47-4.82.66-3.22.43-4.84.59l-4.3.45s-.38.08-1,.15l-.66.07-1.33.13c-.88.07-1.77.13-2.65.16-1.78.08-3.54.08-5.3,0a91.48,91.48,0,0,1-10.26-1c-1.65-.25-3.27-.51-4.81-.78s-3-.51-4.22-.64a13.8,13.8,0,0,0-1.45-.1c-.31,0-.42.07,0-.1a3.63,3.63,0,0,0,.87-.54,3.84,3.84,0,0,0,.77-.91,2.08,2.08,0,0,0,.23-.54c0-.08,0,0,0,0l-.17.75A7,7,0,0,1,853.9,318Z" transform="translate(-853.82 -61.04)"/><path class="cls-2" d="M1067.78,552.64l4.56,5.58c.76.93,1.54,1.85,2.26,2.8l2.12,2.9c1.39,2,2.85,3.85,4.19,5.83l3.91,6a246.27,246.27,0,0,1,13.84,25q6.18,12.84,11.17,26.15a276.42,276.42,0,0,1,8.61,27.07,1,1,0,0,1-1.93.54v0a276.81,276.81,0,0,0-9.69-26.38q-5.49-12.93-12.16-25.3A242.92,242.92,0,0,0,1080,578.94l-4.06-5.66c-1.39-1.86-2.88-3.64-4.31-5.46l-2.16-2.72c-.74-.88-1.53-1.73-2.3-2.59l-4.61-5.16-.14-.16a3.5,3.5,0,0,1,5.22-4.67Z" transform="translate(-853.82 -61.04)"/><path class="cls-1" d="M1382.19,136.7c-4.21-5.93,2-20.3-2.87-25.26-5-5.17-19.56.68-25.17-3.49s-4.3-19.83-10.54-23.12-18.38,6.68-25.07,4.3-9.66-17.71-16.63-19.21-16.06,11.25-23.16,10.54-13.4-15-20.54-15-13.51,14.31-20.6,14.94-15.89-12.3-22.89-11.1-11,16.37-17.9,18.09-17.61-9.72-24.31-7.51-8.58,17.82-15.08,20.5-18.89-7.06-25.14-3.93c-6.45,3.23-5.9,18.91-11.85,22.51-6.21,3.76-19.9-3.91-25.46.2-5.88,4.34-2.45,19.63-7.47,24.28-5.42,5-20.51.67-24.76,6-4.68,5.8,3.08,19.31,0,25.3-3.38,6.64-18.85,9-20,15.72-1.18,7.09,12.71,13.61,14.43,20.55" transform="translate(-853.82 -61.04)"/><path class="cls-2" d="M1380.55,137.86a11.06,11.06,0,0,1-1.75-4.65,25.67,25.67,0,0,1-.24-4.41c.07-2.85.37-5.56.49-8.17a29.68,29.68,0,0,0,0-3.78,8.12,8.12,0,0,0-.76-3.06,2.79,2.79,0,0,0-.74-.94,3.69,3.69,0,0,0-1.12-.66,10.1,10.1,0,0,0-3.23-.65,63.5,63.5,0,0,0-7.8.27,33.79,33.79,0,0,1-8.76-.2,11.21,11.21,0,0,1-2.47-.79,8.78,8.78,0,0,1-2.35-1.59A13,13,0,0,1,1349,105a51.67,51.67,0,0,1-2.46-8.2,38.5,38.5,0,0,0-2.27-7.19,5.83,5.83,0,0,0-1.64-2.16,3.41,3.41,0,0,0-2.17-.53,23.22,23.22,0,0,0-6.88,1.84c-2.47.95-5,2.06-7.87,2.89a18,18,0,0,1-4.76.79,9.76,9.76,0,0,1-2.82-.33,9,9,0,0,1-2.72-1.23,15.38,15.38,0,0,1-3.61-3.53,38.44,38.44,0,0,1-2.46-3.66c-1.45-2.4-2.72-4.78-4.11-6.82a17.1,17.1,0,0,0-2.13-2.64,7.37,7.37,0,0,0-1-.81,3.43,3.43,0,0,0-.87-.35,3.36,3.36,0,0,0-.9,0,7.17,7.17,0,0,0-1.26.35,17.14,17.14,0,0,0-3,1.59c-2.07,1.32-4.18,3-6.5,4.62a40.5,40.5,0,0,1-3.76,2.38,15.84,15.84,0,0,1-4.87,1.79,9.36,9.36,0,0,1-3.13,0,10.11,10.11,0,0,1-2.89-.92,18.28,18.28,0,0,1-4.15-2.83c-2.3-2-4.11-4.13-5.94-6a22.6,22.6,0,0,0-5.21-4.46,4.62,4.62,0,0,0-1-.37,1.9,1.9,0,0,0-.67,0,5.29,5.29,0,0,0-2,1,38.08,38.08,0,0,0-5.22,5.11,50.59,50.59,0,0,1-6.28,6.19,14.15,14.15,0,0,1-5,2.58,10,10,0,0,1-3.35.25,12.37,12.37,0,0,1-2.93-.66,22.52,22.52,0,0,1-4.45-2.23c-1.29-.82-2.46-1.66-3.58-2.49a73.92,73.92,0,0,0-6.28-4.38,9.39,9.39,0,0,0-2.55-1.08,2.3,2.3,0,0,0-.73-.06,1.41,1.41,0,0,0-.5.16,6.92,6.92,0,0,0-1.82,1.54,25.76,25.76,0,0,0-2.12,2.76c-1.43,2.07-2.82,4.41-4.56,6.84a28.74,28.74,0,0,1-3.12,3.69,15.51,15.51,0,0,1-2.23,1.81,11.37,11.37,0,0,1-3.08,1.42,11.17,11.17,0,0,1-3.42.37,14.74,14.74,0,0,1-2.9-.43,25.83,25.83,0,0,1-4.62-1.69c-2.74-1.26-5.12-2.64-7.38-3.76a26.93,26.93,0,0,0-3.19-1.39,6.31,6.31,0,0,0-2.27-.46.79.79,0,0,0-.38.07,1.75,1.75,0,0,0-.43.3,8.29,8.29,0,0,0-1.56,2,62.15,62.15,0,0,0-3.33,6.73c-.59,1.26-1.2,2.57-1.94,3.93a24.27,24.27,0,0,1-2.85,4.25,14.78,14.78,0,0,1-2.32,2.16,11.5,11.5,0,0,1-3.33,1.64,14.58,14.58,0,0,1-6.18.29,48,48,0,0,1-8.77-2.51,41.73,41.73,0,0,0-6.85-2,4.14,4.14,0,0,0-1.73,0s0,0,0,0,0,0-.07.06a2.56,2.56,0,0,0-.4.45A10.43,10.43,0,0,0,1133,104c-.4,1-.77,2.16-1.14,3.39-.74,2.46-1.4,5.17-2.53,8.16a21.43,21.43,0,0,1-2.54,4.84,13.29,13.29,0,0,1-2.45,2.57,12.28,12.28,0,0,1-3.39,1.81,17.26,17.26,0,0,1-5.94.79,37.32,37.32,0,0,1-4.76-.46c-2.91-.45-5.55-1-7.88-1.32a17.61,17.61,0,0,0-3-.16,2.7,2.7,0,0,0-.95.17c.11-.06-.1.07-.36.71a12.45,12.45,0,0,0-.69,2.65c-.39,2.18-.55,4.8-.85,7.65-.15,1.44-.34,3-.67,4.6a19.09,19.09,0,0,1-2,5.56,11.87,11.87,0,0,1-2.48,3.09,13.69,13.69,0,0,1-3.07,2,20.53,20.53,0,0,1-5.51,1.66,76.22,76.22,0,0,1-8.81.74c-1.3.07-2.54.16-3.63.29a11.07,11.07,0,0,0-2.55.55c-.24.09-.4.18-.35.17l0,0s0,0,.07-.07a.41.41,0,0,0,.09-.1,0,0,0,0,0,0,0c.07-.08-.09.16-.12.88a14.36,14.36,0,0,0,.17,2.75c.16,1.1.39,2.3.66,3.57a73.91,73.91,0,0,1,1.54,8.79,21.05,21.05,0,0,1,0,2.89,14,14,0,0,1-.6,3.51,12.39,12.39,0,0,1-.78,2,17.17,17.17,0,0,1-1,1.65,16.75,16.75,0,0,1-2.21,2.55,37.32,37.32,0,0,1-8.26,5.46,71.39,71.39,0,0,0-6.44,3.58,11,11,0,0,0-1,.76,2.68,2.68,0,0,0-.42.44s.08-.06.15-.33a1.26,1.26,0,0,0,.1-.63c0-.14,0-.13,0,0a6.31,6.31,0,0,0,.39.65,18.92,18.92,0,0,0,1.87,2.17c1.6,1.64,3.64,3.4,5.8,5.52a34.64,34.64,0,0,1,3.35,3.74,20.65,20.65,0,0,1,1.68,2.56,16,16,0,0,1,1.41,3.51,7,7,0,0,1-13.59,3.38,1.84,1.84,0,0,0-.1-.26,8.36,8.36,0,0,0-.54-.84,20.78,20.78,0,0,0-2-2.33c-1.67-1.72-3.71-3.54-5.87-5.82a30,30,0,0,1-3.3-4.08,17.79,17.79,0,0,1-1.56-2.9,13.54,13.54,0,0,1-1-3.93,12.16,12.16,0,0,1,.46-4.66,12.87,12.87,0,0,1,2-3.89,19,19,0,0,1,4.67-4.16,81,81,0,0,1,7.81-4.21,26.59,26.59,0,0,0,5.4-3.26,4,4,0,0,0,.48-.49c.06-.06,0-.07.07-.08s0,.12,0,.1a4.92,4.92,0,0,0,.08-1.66,62.81,62.81,0,0,0-1.17-7.22c-.26-1.39-.52-2.85-.72-4.44a26.36,26.36,0,0,1-.15-5.35,14.19,14.19,0,0,1,2.25-6.81c.2-.29.4-.57.61-.85s.51-.58.78-.85a7.13,7.13,0,0,1,.82-.75,8,8,0,0,1,.85-.65,13.64,13.64,0,0,1,3.26-1.64,23.59,23.59,0,0,1,5.39-1.12c1.6-.16,3.07-.23,4.48-.28a72,72,0,0,0,7.39-.43,9.27,9.27,0,0,0,2.27-.58l.34-.17s-.05.11,0-.06a7.51,7.51,0,0,0,.71-2.07,33.7,33.7,0,0,0,.56-3.43c.33-2.53.53-5.33,1.13-8.48a24.15,24.15,0,0,1,1.55-5.15,12.86,12.86,0,0,1,4.57-5.6,11.37,11.37,0,0,1,3.61-1.58,15.32,15.32,0,0,1,3.17-.44,26.75,26.75,0,0,1,5.1.33c3,.45,5.69,1.09,8.12,1.51a28.32,28.32,0,0,0,3.32.4,6.7,6.7,0,0,0,2.08-.15,1.21,1.21,0,0,1,.21-.07,2,2,0,0,0,.34-.36,11.15,11.15,0,0,0,1.24-2.33c.83-2.06,1.54-4.61,2.4-7.32.44-1.36.91-2.79,1.54-4.29a20.53,20.53,0,0,1,2.7-4.75,11.44,11.44,0,0,1,6-4.14,11.84,11.84,0,0,1,3.44-.45,17,17,0,0,1,2.89.26,49.15,49.15,0,0,1,8.68,2.69,40.91,40.91,0,0,0,6.78,2.15,5.28,5.28,0,0,0,1.88.06,1.11,1.11,0,0,0,.3-.13,5.08,5.08,0,0,0,.66-.6,26.88,26.88,0,0,0,3.4-5.8,73.38,73.38,0,0,1,4.06-7.73,17.65,17.65,0,0,1,3.66-4.21,10.48,10.48,0,0,1,3-1.76,10.19,10.19,0,0,1,3.59-.67,15.71,15.71,0,0,1,5.65,1.1A36.38,36.38,0,0,1,1184,77.9c2.57,1.35,4.86,2.73,7,3.77a17.68,17.68,0,0,0,3,1.18,4,4,0,0,0,1.71.18,4,4,0,0,0,1.54-1,19.93,19.93,0,0,0,2.15-2.47c1.46-2,2.89-4.25,4.58-6.61a34.38,34.38,0,0,1,2.91-3.61,14.73,14.73,0,0,1,4.55-3.42,10,10,0,0,1,3.41-.89,10.89,10.89,0,0,1,3.3.29,17.52,17.52,0,0,1,4.89,2.1,78.63,78.63,0,0,1,7,5c1,.8,2.06,1.56,3,2.21a14.54,14.54,0,0,0,2.75,1.48,3.69,3.69,0,0,0,1,.27,1.72,1.72,0,0,0,.68,0,6.29,6.29,0,0,0,2.15-1.13,46.52,46.52,0,0,0,5.35-5.14,44.62,44.62,0,0,1,6.53-6.06,12.46,12.46,0,0,1,5.35-2.25,9.67,9.67,0,0,1,3.36.17,11.57,11.57,0,0,1,2.8,1.07,19.94,19.94,0,0,1,4,3c1.12,1,2.11,2.08,3.06,3.11,1.88,2,3.61,4.08,5.35,5.67A11.75,11.75,0,0,0,1278,76.6a3.38,3.38,0,0,0,1,.34,2.47,2.47,0,0,0,.91,0,9,9,0,0,0,2.72-1,30.92,30.92,0,0,0,3.14-1.9c2.15-1.44,4.32-3.11,6.84-4.66a23,23,0,0,1,4.24-2.11,12.57,12.57,0,0,1,2.67-.66,9.57,9.57,0,0,1,3.14.13A9.68,9.68,0,0,1,1305.5,68a12.31,12.31,0,0,1,2.12,1.72,22.44,22.44,0,0,1,2.93,3.71c1.6,2.48,2.83,4.92,4.14,7.17a32.06,32.06,0,0,0,2,3.14,9.71,9.71,0,0,0,2.1,2.2,3,3,0,0,0,1,.47,4.06,4.06,0,0,0,1.19.15,12.74,12.74,0,0,0,3.24-.5c2.35-.63,4.83-1.64,7.43-2.58,1.31-.48,2.65-1,4.1-1.33a18.54,18.54,0,0,1,4.73-.73,10.5,10.5,0,0,1,2.76.35,8.22,8.22,0,0,1,2.72,1.34,11.06,11.06,0,0,1,3.25,4.23,42.15,42.15,0,0,1,2.51,8.32,48.27,48.27,0,0,0,2,7.4,8.08,8.08,0,0,0,1.58,2.6,3.64,3.64,0,0,0,1,.7,6.86,6.86,0,0,0,1.39.47,30.46,30.46,0,0,0,7.44.25,65.29,65.29,0,0,1,8.44-.11,14.84,14.84,0,0,1,4.67,1.08,8.2,8.2,0,0,1,2.31,1.47,7.27,7.27,0,0,1,1.72,2.26,12.44,12.44,0,0,1,1.17,4.78,34.83,34.83,0,0,1-.05,4.35c-.19,2.8-.54,5.47-.64,8a20.3,20.3,0,0,0,.12,3.69,6.94,6.94,0,0,0,1,2.93l0,.06a2,2,0,0,1-3.3,2.26Z" transform="translate(-853.82 -61.04)"/><path class="cls-3" d="M1217.82,311.25" transform="translate(-853.82 -61.04)"/><path class="cls-3" d="M992,254.19" transform="translate(-853.82 -61.04)"/><path class="cls-3" d="M978.93,287.26" transform="translate(-853.82 -61.04)"/><path class="cls-3" d="M1218.73,328.31" transform="translate(-853.82 -61.04)"/><path class="cls-1" d="M1297.2,370.82s56.17-6.88,76.1-39.65" transform="translate(-853.82 -61.04)"/><path class="cls-2" d="M1297,368.84a158.71,158.71,0,0,0,21.26-4.61,145.49,145.49,0,0,0,20.43-7.48,96.45,96.45,0,0,0,18.57-11,69.35,69.35,0,0,0,7.93-7.18,57.13,57.13,0,0,0,6.45-8.44l0,0a2,2,0,0,1,3.4,2.11,62.75,62.75,0,0,1-6.94,9.09,72.14,72.14,0,0,1-8.42,7.61,99.26,99.26,0,0,1-19.34,11.47,149.22,149.22,0,0,1-21,7.7,162.06,162.06,0,0,1-21.87,4.73,2,2,0,1,1-.56-4h.07Z" transform="translate(-853.82 -61.04)"/><path class="cls-4" d="M892.84,358.3c34.9,74.76,85.1,155.34,135.08,209.4" transform="translate(-853.82 -61.04)"/><path class="cls-4" d="M910.08,366.58c31,66.35,75.54,137.89,119.9,185.87" transform="translate(-853.82 -61.04)"/><path class="cls-4" d="M928.67,378.49c26.92,57.65,65.64,119.8,104.18,161.49" transform="translate(-853.82 -61.04)"/><path class="cls-1" d="M1291.32,314.55s56-5.45,77.65-37.49" transform="translate(-853.82 -61.04)"/><path class="cls-2" d="M1291.12,312.56a160.06,160.06,0,0,0,21.44-4.08,150.25,150.25,0,0,0,20.7-7,99.79,99.79,0,0,0,19-10.47,71.92,71.92,0,0,0,8.23-6.92,60,60,0,0,0,6.84-8.19l0,0a2,2,0,0,1,3.29,2.27,63.82,63.82,0,0,1-7.34,8.79,78.77,78.77,0,0,1-8.71,7.33,104.31,104.31,0,0,1-19.75,10.9,152.61,152.61,0,0,1-21.26,7.15,164.48,164.48,0,0,1-22.06,4.19,2,2,0,1,1-.46-4h.07Z" transform="translate(-853.82 -61.04)"/><path class="cls-5" d="M1239,325.78" transform="translate(-853.82 -61.04)"/><path class="cls-5" d="M1117.8,256" transform="translate(-853.82 -61.04)"/><path class="cls-6" d="M1264.31,341.51l-9,.92c-5.55.83-9.49-3.36-10.32-8.91l-.9-10.22a10.25,10.25,0,0,1,8.6-11.6l8.46-1.25a10.23,10.23,0,0,1,11.6,8.6l1.07,11.27C1274.63,335.87,1269.87,340.69,1264.31,341.51Z" transform="translate(-853.82 -61.04)"/><path class="cls-1" d="M1274.22,473c-3.56-18.43,23.76-23.15,27.38-4.74,0,0,11.05,75.68,36.15,125.89" transform="translate(-853.82 -61.04)"/><path class="cls-2" d="M1271.76,473.45a18.85,18.85,0,0,1-.09-6.32,14.88,14.88,0,0,1,2.43-6,16.2,16.2,0,0,1,10.67-6.57,16.76,16.76,0,0,1,12.14,2.52,15.24,15.24,0,0,1,4.4,4.58,17.16,17.16,0,0,1,2.28,5.82c.23,1,.3,1.89.45,2.79l.42,2.7.88,5.4c.61,3.6,1.24,7.19,1.92,10.78,1.32,7.18,2.83,14.32,4.39,21.46,3.17,14.25,6.83,28.4,11.19,42.33a297.06,297.06,0,0,0,15.8,40.77h0a1,1,0,0,1-.47,1.34,1,1,0,0,1-1.32-.45,298.42,298.42,0,0,1-16.64-40.81c-4.62-14-8.55-28.12-12-42.39-1.69-7.15-3.33-14.31-4.78-21.51q-1.12-5.39-2.12-10.81l-1-5.43-.47-2.72c-.17-.9-.28-1.86-.46-2.62a11.91,11.91,0,0,0-5-7.54,12.22,12.22,0,0,0-8.88-1.65,10.72,10.72,0,0,0-8.9,13.42v0a2.5,2.5,0,0,1-4.91,1Z" transform="translate(-853.82 -61.04)"/><path class="cls-1" d="M1274.19,472.76s11.2,76.7,36.3,126.91" transform="translate(-853.82 -61.04)"/><path class="cls-2" d="M1276.66,472.4c1.55,10.82,3.5,21.69,5.66,32.47s4.63,21.51,7.35,32.17,5.89,21.2,9.38,31.63a302.27,302.27,0,0,0,12.33,30.55h0a1,1,0,0,1-1.8.88,302.36,302.36,0,0,1-13.13-30.53c-3.76-10.42-7.12-21-10.17-31.63s-5.69-21.4-8.13-32.2-4.62-21.63-6.45-32.63a2.5,2.5,0,0,1,4.94-.81v.09Z" transform="translate(-853.82 -61.04)"/><path class="cls-1" d="M975.33,293.82c-13.22,38,89.47,54.76,244.87,25.83" transform="translate(-853.82 -61.04)"/><path class="cls-2" d="M981.94,296.12c-1.33,3.73-1.15,6.67.84,9.84s5.85,6.12,10.17,8.46a69.76,69.76,0,0,0,6.87,3.21c2.4.95,4.86,1.83,7.38,2.61a153,153,0,0,0,15.52,3.87A269.87,269.87,0,0,0,1055,328.3c10.9.81,21.89,1.15,32.89,1.15,22,0,44.06-1.29,66-3.43s43.93-5.16,65.76-8.83a2.5,2.5,0,0,1,.92,4.92c-21.8,4.42-43.75,8.21-65.85,11.11s-44.35,5-66.73,5.73c-11.18.38-22.41.41-33.65,0a282.45,282.45,0,0,1-33.8-3.24,159.94,159.94,0,0,1-16.89-3.62A92.29,92.29,0,0,1,987,325.84a51,51,0,0,1-8.1-5,32.56,32.56,0,0,1-7.26-7.4,24,24,0,0,1-4.16-10.7,26,26,0,0,1,1.23-11.25A7,7,0,1,1,982,296l0,.1Z" transform="translate(-853.82 -61.04)"/><path class="cls-1" d="M1371.61,161.85c-51.36-47.13-245.89-51.08-308.92,61.21" transform="translate(-853.82 -61.04)"/><path class="cls-2" d="M1370.25,163.32a70.7,70.7,0,0,0-8.39-6.27,102.49,102.49,0,0,0-9.22-5.16,142.63,142.63,0,0,0-19.8-7.7A222.59,222.59,0,0,0,1291,136a292.86,292.86,0,0,0-42.71-1.27,301.11,301.11,0,0,0-42.4,4.75,272.25,272.25,0,0,0-41.06,10.91,218.93,218.93,0,0,0-38.22,17.78,167.18,167.18,0,0,0-33,25.42,143.41,143.41,0,0,0-24.76,32.93h0a7,7,0,1,1-12.3-6.69s.07-.12.09-.17a156.79,156.79,0,0,1,28.1-35.24,179.08,179.08,0,0,1,36.17-26.22,229.79,229.79,0,0,1,40.67-17.53,281.93,281.93,0,0,1,42.84-10.07,309.48,309.48,0,0,1,43.7-3.63,301.13,301.13,0,0,1,43.7,2.56,229.52,229.52,0,0,1,42.7,9.69,147,147,0,0,1,20.27,8.58,105,105,0,0,1,9.5,5.68,75.21,75.21,0,0,1,8.73,6.93,2,2,0,0,1-2.68,3Z" transform="translate(-853.82 -61.04)"/><path class="cls-1" d="M990,260.38c-28.84,68.7,107.21,63.53,233,46.76" transform="translate(-853.82 -61.04)"/><path class="cls-2" d="M996.44,263.09a50.44,50.44,0,0,0-2.5,7,29.89,29.89,0,0,0-1.12,6.9,22.49,22.49,0,0,0,.65,6.45,19.25,19.25,0,0,0,2.67,5.77,26.36,26.36,0,0,0,4.56,5.07,41.69,41.69,0,0,0,6,4.21,64.22,64.22,0,0,0,7,3.42c2.44,1,4.93,1.93,7.51,2.72a174.42,174.42,0,0,0,32.35,6.34c11.09,1.24,22.33,1.83,33.58,2.09,22.54.46,45.18-.46,67.79-2s45.21-3.8,67.77-6.42a2.5,2.5,0,0,1,.66,4.95c-22.52,3.38-45.11,6.37-67.81,8.69s-45.5,4-68.45,4.28c-11.48.11-23-.1-34.54-1s-23.16-2.45-34.7-5.66c-2.88-.78-5.75-1.75-8.61-2.8a76.86,76.86,0,0,1-8.47-3.83,54,54,0,0,1-8.1-5.28,39.24,39.24,0,0,1-7.06-7.36,31.87,31.87,0,0,1-4.76-9.48,35.51,35.51,0,0,1-1.47-10.4,43.1,43.1,0,0,1,1.24-9.95,64.1,64.1,0,0,1,2.91-9.14,7,7,0,0,1,13.09,5l-.06.17Z" transform="translate(-853.82 -61.04)"/><path class="cls-7" d="M1553.32,626" transform="translate(-853.82 -61.04)"/></svg>