<svg xmlns="http://www.w3.org/2000/svg" viewBox="0 0 597.54 621.98"><defs><style>.cls-1,.cls-3,.cls-4{fill:#fcfcfc;}.cls-2{fill:#fd0;}.cls-3,.cls-4{stroke:#fd0;stroke-linecap:round;stroke-miterlimit:10;}.cls-3{stroke-width:5px;}.cls-4{stroke-width:4px;}</style></defs><g id="Layer_2" data-name="Layer 2"><g id="Layer_3" data-name="Layer 3"><path class="cls-1" d="M543.8,217.48q-1.47-29.46-2.93-58.92L538,100.65a39.89,39.89,0,0,0-3.67-23c-3.72-7.85-14.62-11.45-22.58-9.2-9.91,2.81-19.22,7.46-28.18,12.48-3.51,2-7,4-10.54,5.88-2,1.08-4.1,2.06-6.14,3.11l-1.61.73c-.66.27-1.33.54-2,.79-17.5,6.62-36.25,9.78-54.48,13.74L290,130.93a16.85,16.85,0,0,0-7,3.45q-3.6.69-7.23,1.26c-.29,0-6.43.81-2.27.34-2.54.29-5.07.59-7.62.82a245.34,245.34,0,0,1-28.69.9c-10.47-.26-20.48,9.39-20,20a22,22,0,0,0,1.53,7.17c-1.11.53-2.21,1.09-3.28,1.67a20.76,20.76,0,0,0-25-1.07c-5.41-1.27-10.49-1.67-15.3-.64-.6-.21-1.2-.39-1.82-.54-11.06-2.51-21,3.35-24.61,14L138.32,209a16,16,0,0,0-.8,4.27,60.17,60.17,0,0,0-8.09,10.27,25.9,25.9,0,0,0-2.88,19.64,18.89,18.89,0,0,0-5.56.69c-2.27.63-4.54,1.29-6.82,1.93A21.52,21.52,0,0,0,98,247.41c-4.27,2.14-8.62,4.09-13,6.11l-.09,0c-14.46-4.08-32.44-.93-46.58,2.5a18.23,18.23,0,0,0-8.45,4.82C21.73,263.37,15,271.16,15.43,280a21.54,21.54,0,0,0,.58,4.11c.19,1.43.38,2.86.58,4.29a19.9,19.9,0,0,0,5.14,8.82l.88.88a15,15,0,0,0,6.44,4.14,15,15,0,0,0,7.7,1.72,15.06,15.06,0,0,0,7.71-1.72,15,15,0,0,0,6.43-4.14c1-1.33,2.07-2.67,3.1-4a19.23,19.23,0,0,0-1.46,3.8,24.1,24.1,0,0,0-.74,4.55,23.32,23.32,0,0,0-2.21,15.38C54.69,348,72,374,90.09,397.88c8.92,11.78,18.12,23.35,26.42,35.57,8.42,12.39,15.9,25.39,24.22,37.86,9.86,14.8,20.86,29.24,34.83,40.41,6,4.83,12.33,6.47,18.56,5,2-3.55,4.82-6.45,6.71-10.08,2.24-4.3,4.84-8.37,7-12.7,2.75-5.43,10.59-1.21,9,4.11a35.15,35.15,0,0,0,9.6,9.82l1.09.71c.7,1.75,1.39,3.49,2.08,5.24a26.57,26.57,0,0,0,5.65,8.73q5.46,9.72,10.21,19.83c1.13,2.42,2.22,4.86,3.3,7.31l.18.41c.64,1.56,1.28,3.13,1.9,4.7q3.09,7.89,5.74,15.94c1.65,5,2.82,10.26,4.75,15.16,3.95,10.06,11.75,18.36,23.29,18.54a23.32,23.32,0,0,0,9.79-1.82,20.59,20.59,0,0,0,17.49,10.6c9.48.46,18.18-3,25.72-8.37a19.53,19.53,0,0,0,3.76-1.06,60.8,60.8,0,0,0,7.92-1.71,161.28,161.28,0,0,0,50.62-24,25.74,25.74,0,0,0,6.29-6.34c2.05-1.21,4.09-2.43,6.08-3.71,8.51-5.44,18.32-5.74,24.49-13.81,2.73.45,3.58,2.1,6.56,1.54.69-.13,2.88.8,3.57.66.94,1.35.79-6.63,2-5.61,6,5.05,14.58,7.27,21.75,4.49a17,17,0,0,0,6.2-.74c10.91-3.53,16.18-13.59,14-24.6q-7.29-36.22-14.79-72.41c-2.24-10.83-4-21.95-6.81-32.66a19.93,19.93,0,0,0,12.86.77c8.85-2.87,14-10.13,14.68-19.29.81-10.72,1.61-21.45,2.59-32.16C511.48,355.64,515,331.75,513.08,310a26.46,26.46,0,0,0-2-7.9c0-.44,0-.88.05-1.32,2.31-1.58,4.52-3.24,6.62-4.95A65.56,65.56,0,0,0,541,254.56a34.42,34.42,0,0,0,2.49-6.69C545.93,238.14,544.29,227.36,543.8,217.48ZM188.7,223.2l-7,2.51.42-.39c1.54-1.41,3.12-2.76,4.69-4.13C187.43,221.88,188.05,222.56,188.7,223.2Z"/><path class="cls-1" d="M597.53,602,590.6,383.87c-2.24-70.48-4.37-141.08-12.4-211.19-4.66-40.69-11.09-81.2-20.57-121.06a18.23,18.23,0,0,0-7.09-10.44c-2.08-6.24-6.48-11.63-12.7-13.6a45,45,0,0,0-16-16.41C506.67,2.13,488,2.66,471,2.06L413.4,0c-10.46-.37-20.47,9.47-20,20,.5,11.15,8.79,19.6,20,20L464,41.81c7.78.28,15.58.43,23.36.87,1,0,2.05.15,3.08.23a22.24,22.24,0,0,0-5.91,13.89c-1.67,21,2.85,41.38,11.36,60.53,2.43,5.45,8.92,9,15.23,9.77.91,44.66,3.68,89.28,7.2,133.81.1,1.27.21,2.54.31,3.81-8.53,22.33-19,44-25.34,67.06a196.49,196.49,0,0,0-5.27,27.52c-.53,4.11-1,8.24-1.43,12.36-.1.86-.21,1.71-.3,2.56-.39,2.42-.77,4.83-1.29,7.23a86.91,86.91,0,0,1-3.28,11.41c-.6,1.67-1.25,3.32-1.91,5l-.07.18-1.41,3.23c-.57,1.3-1.14,2.6-1.72,3.9a33.85,33.85,0,0,0-9.93-1.76c-10.24-.31-20.78,9.44-20,20,1.62,22,9.23,41.82,17.18,62.14l.41,1.05c.4,3.64.88,7.29,1.44,10.92q.93,19.25,1.51,38.49c.12,4,.21,8,.3,12l-26.05,3.2L378.27,559q-13.56,1.08-27.1,2.27a25.24,25.24,0,0,0-7.87,2l-41,5c-10.35,1.27-20.53,8.29-20,20,.45,10.06,8.84,21,20,20q49.56-4.29,99-10.05,30.29-1,60.61-.2c17.38.5,34.87,1.17,52.17,3.07,1.08.12,7.11.43,2.07.23a41.08,41.08,0,0,1,5.7,1c3.75.7,7.48,1.56,11.15,2.63,1.82.53,3.63,1.1,5.41,1.74.64.23,1.27.48,1.91.73l0,0a119.56,119.56,0,0,1,10.53,6.06,16.93,16.93,0,0,0,12.8,2.74A18.12,18.12,0,0,0,577.53,622C588.08,621.49,597.88,613.16,597.53,602Z"/><path class="cls-1" d="M7.87,255.39c88.77,87.18,316.45,62.44,348.09,28a42.73,42.73,0,0,0,11.86-30.91,15.07,15.07,0,0,1,12.76-15l43.48-6.81a10,10,0,0,1,11.51,9l7.77,85.37a10,10,0,0,1-7.14,10.52c-108.71,32.69-202,122.92-227.33,160.68l-22.83,34c-14.11,21-95.85-110.88-107-127.16-22-32-56.15-88.66-72-145.32"/><path class="cls-2" d="M12.77,250.39A145.64,145.64,0,0,0,42,273.11a212.57,212.57,0,0,0,34,16.18,297.07,297.07,0,0,0,36.43,11,367.74,367.74,0,0,0,37.67,6.8,480.59,480.59,0,0,0,76.72,3.65q19.24-.6,38.39-2.67A372.29,372.29,0,0,0,303.15,302c6.26-1.35,12.46-2.9,18.56-4.73a142.85,142.85,0,0,0,17.82-6.51,69.75,69.75,0,0,0,8.21-4.36,39.77,39.77,0,0,0,3.68-2.61c.58-.47,1.13-.95,1.65-1.45.27-.24.5-.5.76-.75s.5-.57.76-.85a40.42,40.42,0,0,0,9-15.65,42,42,0,0,0,1.59-9c0-.76.1-1.53.1-2.3l0-1.16.05-1.37a17.91,17.91,0,0,1,1.27-5.5,17.58,17.58,0,0,1,12.47-10.48c.44-.09.95-.2,1.34-.26l1.2-.18,2.4-.37,38.34-5.83,1.2-.18c.41-.06,1-.11,1.43-.16a12.77,12.77,0,0,1,3,.23,12.14,12.14,0,0,1,5.31,2.48,12,12,0,0,1,4.37,7.49c.17,1,.19,1.75.27,2.58l1.68,19.32L443,299.08l1.72,19.32.43,4.82c.06.84.16,1.53.19,2.56a12.62,12.62,0,0,1-.31,2.87,12.08,12.08,0,0,1-7.23,8.41c-1,.35-1.69.56-2.45.81l-2.3.73-4.59,1.47c-3.07,1-6.07,2.12-9.11,3.16s-6,2.27-9,3.42-6,2.39-8.93,3.64a445.16,445.16,0,0,0-67.89,36.55q-16.18,10.52-31.52,22.27t-29.85,24.45q-14.49,12.74-28,26.5-6.74,6.87-13.12,14.06t-12.26,14.71c-1,1.25-1.94,2.51-2.86,3.8s-1.87,2.55-2.74,3.85l-1.33,2-1.34,2-2.67,4.05L197.12,520.7l-5.34,8.09-1.33,2-.67,1c-.24.35-.37.59-.83,1.21a8.87,8.87,0,0,1-3.37,2.73,9.13,9.13,0,0,1-4.21.77,15.52,15.52,0,0,1-6.24-1.84,33.79,33.79,0,0,1-4.66-2.9,75.92,75.92,0,0,1-7.81-6.63c-4.84-4.64-9.23-9.54-13.5-14.52s-8.33-10.08-12.33-15.22c-8-10.3-15.61-20.82-23.08-31.43S99,442.66,91.8,431.89L81,415.72l-5.35-8-5.5-8a645.83,645.83,0,0,1-40-67.21C18.22,309.26,7.75,285.09.29,259.69a7,7,0,0,1,13.43-3.95l0,.12,0,0C20.35,280.3,30,304,41.14,327a624.88,624.88,0,0,0,38.07,66.7l5.35,8.09L89.83,410l10.43,16.31q10.5,16.26,21.33,32.25c7.25,10.65,14.64,21.18,22.34,31.44,3.86,5.12,7.79,10.18,11.84,15.09s8.25,9.71,12.68,14.08a69.36,69.36,0,0,0,6.86,6,26.18,26.18,0,0,0,3.52,2.28,8,8,0,0,0,2.94,1,1.39,1.39,0,0,0,.53,0c.07,0,.16-.07.35-.3,0,0,.33-.46.54-.77l.69-1,1.36-2,5.47-8,10.94-16,2.73-4,1.37-2,1.43-2q1.42-2.06,2.94-4c1-1.33,2-2.63,3-3.9q6.16-7.69,12.81-14.87t13.57-14.07q13.88-13.74,28.76-26.35A573.57,573.57,0,0,1,331,383a458.16,458.16,0,0,1,68.88-36.24c3-1.25,6-2.52,9-3.66s6-2.39,9.12-3.43,6.11-2.21,9.21-3.18l4.65-1.47,2.32-.74c.78-.24,1.6-.5,2.16-.7a8.2,8.2,0,0,0,4.92-5.74,8,8,0,0,0,.2-2c0-.58-.11-1.49-.18-2.27l-.45-4.82L439,299.44l-3.63-38.61-1.85-19.31A8.11,8.11,0,0,0,423,233.16l-38.29,6.17-2.39.39-1.2.19c-.4.06-.68.14-1,.21a12.63,12.63,0,0,0-3.73,1.52,12.42,12.42,0,0,0-5.14,6.06,12.24,12.24,0,0,0-.86,3.91l0,1v1.26c0,.85-.06,1.7-.08,2.54a47.1,47.1,0,0,1-1.65,10.11,45.9,45.9,0,0,1-9.89,17.86c-.29.32-.55.64-.85,1s-.62.66-.94,1q-1,.93-2,1.77a44.51,44.51,0,0,1-4.17,3.06,77,77,0,0,1-8.84,4.85,146.84,146.84,0,0,1-18.48,7.05c-6.26,2-12.58,3.64-18.95,5.11a449.41,449.41,0,0,1-77.42,10.23A507.37,507.37,0,0,1,149,316.39c-26-2.85-51.88-7.69-76.89-16.29A225.76,225.76,0,0,1,35.67,284,162.56,162.56,0,0,1,3,260.38a7,7,0,0,1,9.63-10.16Z"/><path class="cls-1" d="M7,257.8c1.14-9.31,14.34.19,34.89-2.26.3,0,.59-.11.88-.14,30.83-3.11,60.89-11.91,71.25-16.81,2.71-1.29,5.27-2.83,6.46-5.58,8.9-20.63,47-108,51.43-100.5,43.14,73.27,296.65,77.89,345.85,12"/><path class="cls-2" d="M.08,257a15.91,15.91,0,0,1,.44-2.28A12.25,12.25,0,0,1,1.68,252,10.4,10.4,0,0,1,4,249.24a10.68,10.68,0,0,1,2.91-1.75,14.15,14.15,0,0,1,4.68-1,28.33,28.33,0,0,1,3.29.08c1.94.17,3.59.42,5.18.65l4.57.66a74.14,74.14,0,0,0,8.63.71c1.4,0,2.8,0,4.19-.08.69,0,1.38-.1,2.07-.16l1-.12.52-.06c-.23,0-.23,0,.16,0,.19,0,.47-.08.83-.12l.31,0,.57-.06,1.14-.14,2.29-.28c1.53-.16,3-.41,4.57-.62s3.05-.44,4.57-.69,3.05-.48,4.56-.77q9.12-1.59,18.15-3.7c6-1.41,12-3,17.84-4.78,2.93-.88,5.83-1.82,8.63-2.83l2.08-.77,2-.8a37.22,37.22,0,0,0,3.44-1.61,4.54,4.54,0,0,0,1.28-.94l0,0s0,0,0,0l.22-.51,1-2.19,3.8-8.73,7.79-17.38c5.26-11.56,10.55-23.11,16.17-34.56,2.81-5.72,5.67-11.43,8.68-17.13,1.5-2.84,3-5.69,4.67-8.53s3.29-5.68,5.35-8.63c.52-.74,1.07-1.49,1.71-2.29a19,19,0,0,1,2.61-2.71c.17-.14.33-.28.55-.44s.42-.3.71-.48a8.63,8.63,0,0,1,2.43-1.07,8.21,8.21,0,0,1,1-.21,9.21,9.21,0,0,1,1.29-.07,7.82,7.82,0,0,1,3,.71A8,8,0,0,1,178,129c.36.58.69,1.17,1.06,1.75a53.13,53.13,0,0,0,5.07,6.65,75.74,75.74,0,0,0,13.1,11.44c9.72,6.82,20.82,12.12,32.29,16.5,23,8.66,47.62,13.92,72.38,17.19a480.41,480.41,0,0,0,75,3.86c25.07-.7,50.15-3.38,74.58-9A190.5,190.5,0,0,0,487,165.58a109.14,109.14,0,0,0,16.28-9.14A63,63,0,0,0,517,143.92h0a1,1,0,0,1,1.41-.16,1,1,0,0,1,.19,1.36A65.28,65.28,0,0,1,505,158.82,107,107,0,0,1,488.67,169a195.92,195.92,0,0,1-35.86,13.59c-6.16,1.72-12.37,3.22-18.62,4.54s-12.55,2.41-18.86,3.36c-12.63,1.91-25.34,3.2-38.08,4A470.94,470.94,0,0,1,300.67,193c-12.74-1.32-25.45-3.19-38.06-5.75A274.58,274.58,0,0,1,225.21,177a190.65,190.65,0,0,1-18.15-7.45,133.64,133.64,0,0,1-17.37-9.77A89.37,89.37,0,0,1,174,146.66a66.88,66.88,0,0,1-6.6-8.29c-.51-.74-1-1.52-1.45-2.27a6.09,6.09,0,0,0,2.68,2.39,6.42,6.42,0,0,0,2.46.58,5.65,5.65,0,0,0,1-.06,4.25,4.25,0,0,0,.71-.14,4.91,4.91,0,0,0,1.36-.57l.22-.15.09-.07c.08-.07-.31.33-.62.75s-.73,1-1.1,1.53c-1.53,2.27-3.06,4.92-4.52,7.58s-2.91,5.42-4.31,8.19c-2.82,5.54-5.54,11.19-8.21,16.86q-8,17.07-15.66,34.37l-7.59,17.33-3.77,8.67-.94,2.17-.25.58c-.16.36-.33.72-.51,1.06a16.64,16.64,0,0,1-1.26,2,19,19,0,0,1-6,5.08,49.54,49.54,0,0,1-5.13,2.45l-2.39,1-2.37.88c-3.15,1.14-6.27,2.15-9.4,3.1-6.25,1.88-12.53,3.5-18.85,4.95S69,259.29,62.55,260.31c-1.59.28-3.2.49-4.81.73s-3.21.46-4.82.66-3.22.42-4.84.58l-2.43.25-1.21.13-.61.06-.28,0,.24,0s-.38.08-1,.15l-.66.07-1.33.13c-.89.07-1.77.12-2.66.16-1.77.07-3.54.08-5.29,0a91.82,91.82,0,0,1-10.28-1c-1.65-.25-3.26-.52-4.8-.79s-3-.52-4.22-.65a13.47,13.47,0,0,0-1.45-.1c-.31,0-.41.06,0-.11a3.42,3.42,0,0,0,.87-.55,3.56,3.56,0,0,0,.76-.91,1.68,1.68,0,0,0,.23-.55c0-.07,0,0,0,0l-.19.81A7,7,0,0,1,.08,257Z"/><path class="cls-2" d="M214,491.6l4.56,5.58c.76.93,1.54,1.84,2.27,2.8l2.11,2.9c1.4,1.95,2.85,3.85,4.19,5.83l3.92,6a246.19,246.19,0,0,1,13.83,25Q251,552.5,256,565.82a277.09,277.09,0,0,1,8.61,27.06,1,1,0,0,1-1.93.55v0A272.25,272.25,0,0,0,253,567q-5.49-12.94-12.16-25.3a239.85,239.85,0,0,0-14.61-23.82l-4.06-5.66c-1.39-1.86-2.88-3.64-4.31-5.46l-2.16-2.72c-.74-.89-1.53-1.73-2.3-2.59l-4.61-5.16-.14-.16a3.5,3.5,0,1,1,5.22-4.67Z"/><path class="cls-1" d="M529.5,76c-4.09-5.89,2.33-20.11-2.36-25-4.9-5.16-19.42.58-24.88-3.59s-3.88-19.76-10-23.07S474,30.86,467.47,28.46s-9.31-17.73-16.16-19.25S435.42,20.4,428.43,19.68s-13.15-15-20.18-15S395,19,388,19.61,372.29,7.32,365.4,8.54s-10.73,16.37-17.48,18.11S330.45,17,323.87,19.22,315.66,37,309.29,39.73s-18.77-7-24.89-3.8c-6.31,3.25-5.48,18.86-11.28,22.49-6.06,3.78-19.77-3.77-25.18.35-5.73,4.36-2,19.52-6.85,24.18-5.25,5-20.33.84-24.43,6.12-4.5,5.78,3.55,19.06.63,25-3.22,6.57-18.61,9.06-19.64,15.68-1.09,7,12.84,13.35,14.51,20.18"/><path class="cls-2" d="M528.68,76.56a9.71,9.71,0,0,1-1.51-4.21,23.76,23.76,0,0,1-.16-4.2c.11-2.75.45-5.42.62-8.05a29.38,29.38,0,0,0,0-3.86,8.81,8.81,0,0,0-.79-3.4c-.88-1.88-3.25-2.58-5.75-2.74a65.22,65.22,0,0,0-7.84.24,32.88,32.88,0,0,1-8.43-.2,10.31,10.31,0,0,1-2.25-.72A7.53,7.53,0,0,1,500.53,48,11.74,11.74,0,0,1,498,44.05a50.85,50.85,0,0,1-2.25-8,38.16,38.16,0,0,0-2.16-7.33,6.57,6.57,0,0,0-1.82-2.47,4.17,4.17,0,0,0-2.63-.69,23.18,23.18,0,0,0-7.07,1.87c-2.47.94-4.95,2-7.72,2.83a17.23,17.23,0,0,1-4.52.75,8.75,8.75,0,0,1-2.59-.3,7.86,7.86,0,0,1-2.46-1.16,14.27,14.27,0,0,1-3.36-3.36,40.33,40.33,0,0,1-2.33-3.58c-1.39-2.38-2.62-4.75-4-6.84A17.56,17.56,0,0,0,453,13a7.39,7.39,0,0,0-1.13-.91,3.86,3.86,0,0,0-1.06-.44,4.15,4.15,0,0,0-1.12,0,7.75,7.75,0,0,0-1.39.39,17.85,17.85,0,0,0-3.07,1.65c-2.09,1.35-4.17,3-6.44,4.63a38.59,38.59,0,0,1-3.64,2.33,14.94,14.94,0,0,1-4.61,1.72,8.53,8.53,0,0,1-2.9,0,9.44,9.44,0,0,1-2.69-.87A17.49,17.49,0,0,1,421,18.78c-2.21-2-4-4.06-5.79-6a23.16,23.16,0,0,0-5.28-4.58,5.08,5.08,0,0,0-1.12-.42,2.49,2.49,0,0,0-.86,0,5.56,5.56,0,0,0-2.23,1.12,38.64,38.64,0,0,0-5.21,5.2,49.84,49.84,0,0,1-6.07,6.12,13.06,13.06,0,0,1-4.76,2.5,9.07,9.07,0,0,1-3.15.24,11.37,11.37,0,0,1-2.77-.63,21.22,21.22,0,0,1-4.29-2.17c-1.25-.8-2.4-1.63-3.5-2.45a73.35,73.35,0,0,0-6.25-4.38,9.91,9.91,0,0,0-2.66-1.13,2.25,2.25,0,0,0-.86-.06,1.68,1.68,0,0,0-.63.2A7.1,7.1,0,0,0,363.64,14a25.85,25.85,0,0,0-2.1,2.82c-1.4,2.09-2.73,4.42-4.4,6.83a27.75,27.75,0,0,1-3,3.64,12.06,12.06,0,0,1-5.05,3.15,10.51,10.51,0,0,1-3.27.37,13.63,13.63,0,0,1-2.78-.42,24.59,24.59,0,0,1-4.5-1.64c-2.68-1.23-5-2.59-7.28-3.7a30,30,0,0,0-3.21-1.39,6.71,6.71,0,0,0-2.38-.47,1,1,0,0,0-.48.1,2.18,2.18,0,0,0-.51.35,8.8,8.8,0,0,0-1.58,2.08,66.07,66.07,0,0,0-3.19,6.77,34.33,34.33,0,0,1-4.53,8.1,13.7,13.7,0,0,1-2.22,2.12,10.6,10.6,0,0,1-3.2,1.62,13.89,13.89,0,0,1-6,.31,48.37,48.37,0,0,1-8.62-2.42,40.73,40.73,0,0,0-6.83-2,4.06,4.06,0,0,0-1.82,0c-.09,0-.06,0-.17.11a2.51,2.51,0,0,0-.43.5A10.71,10.71,0,0,0,285,43.29c-.38,1-.73,2.17-1.06,3.4-.68,2.46-1.27,5.15-2.32,8.11a20.92,20.92,0,0,1-2.39,4.79,12.53,12.53,0,0,1-2.35,2.55A11.74,11.74,0,0,1,273.55,64a16.87,16.87,0,0,1-5.81.82,40.48,40.48,0,0,1-4.68-.42c-2.88-.42-5.49-1-7.82-1.25a17.1,17.1,0,0,0-3-.13c-.79.05-1.17.27-1,.2s-.12.09-.37.76a12.84,12.84,0,0,0-.63,2.67c-.32,2.19-.42,4.79-.64,7.62a45.75,45.75,0,0,1-.56,4.55,18.46,18.46,0,0,1-1.82,5.52,11.81,11.81,0,0,1-2.4,3.09,13.18,13.18,0,0,1-3,2,20.75,20.75,0,0,1-5.41,1.69,80.06,80.06,0,0,1-8.69.82c-1.29.08-2.51.18-3.59.32a11.24,11.24,0,0,0-2.53.58c-.24.1-.4.19-.35.18l0,0s0,0,.07-.07a.28.28,0,0,0,.09-.1,0,0,0,0,0,0,0c.08-.09-.08.15-.08.87a14.48,14.48,0,0,0,.25,2.75c.19,1.08.45,2.27.75,3.52a70.5,70.5,0,0,1,1.75,8.67,19.94,19.94,0,0,1,.11,2.86,14.06,14.06,0,0,1-.52,3.5,12.18,12.18,0,0,1-.75,2,13.17,13.17,0,0,1-1,1.66,15.82,15.82,0,0,1-2.17,2.56,26.66,26.66,0,0,1-4.25,3.24c-1.36.85-2.65,1.56-3.88,2.22a69,69,0,0,0-6.35,3.61,9,9,0,0,0-1,.75,2.68,2.68,0,0,0-.4.43s.09-.07.16-.35a1.41,1.41,0,0,0,.1-.67c0-.16,0-.15,0,0a5.84,5.84,0,0,0,.41.64,17.78,17.78,0,0,0,1.89,2.13c1.61,1.6,3.66,3.32,5.82,5.4a33,33,0,0,1,3.38,3.69,20.89,20.89,0,0,1,1.7,2.55,15.55,15.55,0,0,1,1.42,3.53,7,7,0,1,1-13.6,3.33c0,.07,0,0-.08-.19a5.19,5.19,0,0,0-.51-.8,21.31,21.31,0,0,0-2-2.28c-1.65-1.68-3.68-3.46-5.84-5.68a30.87,30.87,0,0,1-3.31-4,18.66,18.66,0,0,1-1.59-2.84A13.64,13.64,0,0,1,191,132a11.89,11.89,0,0,1,.39-4.66,12.56,12.56,0,0,1,2-3.9,18.76,18.76,0,0,1,4.6-4.15,77.93,77.93,0,0,1,7.72-4.2,26.84,26.84,0,0,0,5.33-3.24c.49-.42.59-.7.48-.42a4.82,4.82,0,0,0,.05-1.62,60.76,60.76,0,0,0-1.32-7.11c-.29-1.36-.58-2.8-.81-4.37a26.12,26.12,0,0,1-.29-5.26,14,14,0,0,1,2.06-6.79c.19-.29.39-.57.6-.85s.49-.58.75-.86a9.41,9.41,0,0,1,.8-.76,9,9,0,0,1,.83-.65,13.38,13.38,0,0,1,3.22-1.66,22.93,22.93,0,0,1,5.3-1.15c1.58-.17,3-.25,4.43-.3a72.6,72.6,0,0,0,7.33-.48,9.56,9.56,0,0,0,2.28-.59,3.25,3.25,0,0,0,.33-.18s0,.11.06-.06a7.41,7.41,0,0,0,.68-2.09c.21-1,.36-2.18.49-3.42.27-2.51.41-5.28.93-8.39a23.7,23.7,0,0,1,1.41-5.09A12.47,12.47,0,0,1,245,54.12a11.13,11.13,0,0,1,3.53-1.58,14.28,14.28,0,0,1,3.1-.46,26.93,26.93,0,0,1,5,.3c3,.44,5.62,1.06,8,1.47a27.9,27.9,0,0,0,3.32.39,7.41,7.41,0,0,0,2.13-.16l.24-.09a2,2,0,0,0,.37-.39A10.76,10.76,0,0,0,272,51.22c.8-2.07,1.46-4.61,2.26-7.3.4-1.35.85-2.76,1.44-4.24A19.8,19.8,0,0,1,278.19,35a11.07,11.07,0,0,1,5.73-4.11,11.5,11.5,0,0,1,3.34-.45,16,16,0,0,1,2.81.25,47.81,47.81,0,0,1,8.54,2.64,40.27,40.27,0,0,0,6.78,2.14,5.38,5.38,0,0,0,2,.06,1.21,1.21,0,0,0,.38-.17,5.14,5.14,0,0,0,.7-.64,27.38,27.38,0,0,0,3.34-5.87,70.84,70.84,0,0,1,3.87-7.67A17.21,17.21,0,0,1,319.14,17a10.2,10.2,0,0,1,2.91-1.73,9.51,9.51,0,0,1,3.44-.65A15.1,15.1,0,0,1,331,15.72a38.88,38.88,0,0,1,4.13,1.9c2.53,1.33,4.8,2.7,7,3.76a18.48,18.48,0,0,0,3,1.2,4.06,4.06,0,0,0,1.89.18,4.18,4.18,0,0,0,1.68-1.1,19,19,0,0,0,2.15-2.53c1.45-2,2.84-4.26,4.47-6.59A34.22,34.22,0,0,1,358.05,9a14,14,0,0,1,4.32-3.32,9,9,0,0,1,3.22-.86,9.88,9.88,0,0,1,3.13.28,16.75,16.75,0,0,1,4.69,2,76.31,76.31,0,0,1,6.81,5c1,.8,2,1.56,3,2.22a14.18,14.18,0,0,0,2.83,1.55,4.8,4.8,0,0,0,1.12.31,2.29,2.29,0,0,0,.83,0A6.69,6.69,0,0,0,390.36,15a45.79,45.79,0,0,0,5.33-5.19,44.18,44.18,0,0,1,6.34-6,11.57,11.57,0,0,1,5-2.15,8.67,8.67,0,0,1,3.14.16,10.84,10.84,0,0,1,2.62,1,19.1,19.1,0,0,1,3.81,2.88c1.09,1,2,2.06,3,3.08,1.83,2,3.52,4.08,5.27,5.72a12.52,12.52,0,0,0,2.58,1.93,3.81,3.81,0,0,0,1.11.41,3,3,0,0,0,1.09,0,9.75,9.75,0,0,0,2.91-1.05,35.31,35.31,0,0,0,3.16-1.93c2.15-1.45,4.29-3.09,6.74-4.6a22.3,22.3,0,0,1,4.06-2,12,12,0,0,1,2.5-.62,9.09,9.09,0,0,1,2.88.13,8.86,8.86,0,0,1,2.62,1.14,11.9,11.9,0,0,1,2,1.64,22.55,22.55,0,0,1,2.73,3.61c1.51,2.43,2.69,4.87,4,7.14a32.82,32.82,0,0,0,2,3.2,9.94,9.94,0,0,0,2.22,2.39,3.52,3.52,0,0,0,1.14.58,4.47,4.47,0,0,0,1.38.19,13.05,13.05,0,0,0,3.4-.51c2.4-.63,4.87-1.63,7.44-2.54a26.52,26.52,0,0,1,8.47-1.94,9.29,9.29,0,0,1,2.51.34,7.11,7.11,0,0,1,2.42,1.23A10.21,10.21,0,0,1,497,27.18a40.78,40.78,0,0,1,2.22,8.12,48.48,48.48,0,0,0,1.9,7.51,8.68,8.68,0,0,0,1.7,2.88,5.2,5.2,0,0,0,2.73,1.4,30.52,30.52,0,0,0,7.6.32,64.37,64.37,0,0,1,8.23,0,13.52,13.52,0,0,1,4.32,1,6.78,6.78,0,0,1,3.5,3.32,11.3,11.3,0,0,1,.95,4.4,31.87,31.87,0,0,1-.14,4.17c-.24,2.73-.64,5.37-.8,8a21.11,21.11,0,0,0,0,3.82,7.49,7.49,0,0,0,1.08,3.33v0a1,1,0,0,1-.29,1.38A1,1,0,0,1,528.68,76.56Z"/><path class="cls-1" d="M443.38,309.78s56.18-6.88,76.1-39.65"/><path class="cls-2" d="M443.14,307.8a159.67,159.67,0,0,0,21.32-4.37A146,146,0,0,0,485,296.16a96.71,96.71,0,0,0,18.82-10.86,70.07,70.07,0,0,0,8.12-7.18,58.91,58.91,0,0,0,6.66-8.51v0a1,1,0,0,1,1.7,1.06,61.05,61.05,0,0,1-6.73,9,73.2,73.2,0,0,1-8.23,7.62,99.41,99.41,0,0,1-19.1,11.61,149.45,149.45,0,0,1-20.85,7.91,164.22,164.22,0,0,1-21.81,5,2,2,0,0,1-.6-4h.12Z"/><path class="cls-3" d="M39,297.26C73.92,372,124.12,452.6,174.1,506.66"/><path class="cls-3" d="M56.26,305.54c31,66.35,75.54,137.88,119.91,185.87"/><path class="cls-3" d="M74.86,317.45C101.77,375.1,140.49,437.25,179,478.94"/><path class="cls-1" d="M437.5,253.51s56-5.45,77.66-37.49"/><path class="cls-2" d="M437.3,251.52a161.15,161.15,0,0,0,21.51-3.84,148.85,148.85,0,0,0,20.83-6.75,99.3,99.3,0,0,0,19.22-10.32,72.26,72.26,0,0,0,8.41-6.9,61,61,0,0,0,7.06-8.25v0a1,1,0,0,1,1.64,1.14,63.41,63.41,0,0,1-7.12,8.73,75.4,75.4,0,0,1-8.54,7.33,102.57,102.57,0,0,1-19.5,11.05,152.85,152.85,0,0,1-21.13,7.38,165.1,165.1,0,0,1-22,4.43,2,2,0,0,1-.5-4h.11Z"/><path class="cls-4" d="M410.5,280.47l-9,.92c-5.55.83-9.49-3.36-10.31-8.91l-.9-10.22a10.24,10.24,0,0,1,8.6-11.6l8.46-1.25a10.22,10.22,0,0,1,11.59,8.6L420,269.27C420.81,274.83,416.05,279.64,410.5,280.47Z"/><path class="cls-1" d="M420.4,411.94c-3.56-18.43,23.76-23.15,27.39-4.74,0,0,11,75.68,36.14,125.88"/><path class="cls-2" d="M418,412.41a18.85,18.85,0,0,1-.1-6.32,14.77,14.77,0,0,1,2.43-6A16.22,16.22,0,0,1,431,393.49,16.7,16.7,0,0,1,443.09,396a15.16,15.16,0,0,1,4.4,4.59,17.39,17.39,0,0,1,2.29,5.82c.22,1,.29,1.89.44,2.79l.42,2.7.88,5.4q.92,5.38,1.92,10.78c1.32,7.18,2.83,14.32,4.4,21.45,3.16,14.26,6.83,28.41,11.18,42.34a295.82,295.82,0,0,0,15.81,40.77h0a1,1,0,0,1-.46,1.34,1,1,0,0,1-1.33-.45,297.11,297.11,0,0,1-16.63-40.81c-4.63-14-8.55-28.12-12-42.4-1.7-7.14-3.34-14.3-4.79-21.5q-1.11-5.4-2.12-10.81l-1-5.43-.47-2.72c-.16-.9-.27-1.87-.46-2.62a12,12,0,0,0-5-7.55,12.22,12.22,0,0,0-8.88-1.65,11.53,11.53,0,0,0-7.49,4.73,11.35,11.35,0,0,0-1.4,8.69v0a2.5,2.5,0,0,1-4.9,1Z"/><path class="cls-1" d="M420.37,411.72s11.2,76.7,36.3,126.9"/><path class="cls-2" d="M422.84,411.36c1.55,10.82,3.5,21.69,5.66,32.46s4.63,21.52,7.35,32.18,5.89,21.19,9.38,31.62a301.5,301.5,0,0,0,12.33,30.56h0a1,1,0,0,1-1.79.88,301.15,301.15,0,0,1-13.14-30.53c-3.75-10.42-7.11-21-10.16-31.63s-5.7-21.4-8.13-32.2-4.63-21.64-6.46-32.63a2.5,2.5,0,0,1,4.94-.82v.1Z"/><path class="cls-1" d="M121.51,232.78c-13.21,38,89.48,54.76,244.87,25.83"/><path class="cls-2" d="M128.12,235.08c-1.33,3.73-1.15,6.67.84,9.84s5.86,6.12,10.17,8.46a69.76,69.76,0,0,0,6.87,3.21c2.4,1,4.86,1.83,7.38,2.61a153.67,153.67,0,0,0,15.52,3.87,272.19,272.19,0,0,0,32.32,4.19c10.91.81,21.89,1.15,32.89,1.15,22,0,44.06-1.29,66.05-3.43s43.93-5.17,65.77-8.83a2.5,2.5,0,0,1,.91,4.91c-21.8,4.43-43.75,8.22-65.85,11.12s-44.35,5-66.72,5.73c-11.19.38-22.41.41-33.66-.05a280.58,280.58,0,0,1-33.8-3.23A163,163,0,0,1,149.92,271a92.29,92.29,0,0,1-16.74-6.21,51.22,51.22,0,0,1-8.09-5,32.59,32.59,0,0,1-7.27-7.4,24.05,24.05,0,0,1-4.16-10.7,26,26,0,0,1,1.24-11.25,7,7,0,1,1,13.28,4.43.42.42,0,0,1,0,.1Z"/><path class="cls-1" d="M517.79,100.81C466.43,53.68,271.91,49.73,208.87,162"/><path class="cls-2" d="M517.11,101.55a71.6,71.6,0,0,0-8.54-6.35A96.34,96.34,0,0,0,499.24,90a142.54,142.54,0,0,0-19.95-7.71,225,225,0,0,0-42-8.14A294.43,294.43,0,0,0,394.44,73,302.13,302.13,0,0,0,352,77.91a272.84,272.84,0,0,0-41.1,11,218.82,218.82,0,0,0-38.22,17.93,166.89,166.89,0,0,0-33,25.54,143.45,143.45,0,0,0-24.67,33h0a7,7,0,0,1-12.32-6.65,2.25,2.25,0,0,1,.12-.21A156.75,156.75,0,0,1,231,123.43a179.38,179.38,0,0,1,36.21-26.09A229.41,229.41,0,0,1,307.82,80,281.4,281.4,0,0,1,350.63,70a309.94,309.94,0,0,1,43.63-3.5,301,301,0,0,1,43.59,2.68A228.77,228.77,0,0,1,480.37,79a147.24,147.24,0,0,1,20.12,8.58,103.81,103.81,0,0,1,9.39,5.65,74.54,74.54,0,0,1,8.58,6.86,1,1,0,0,1,0,1.42,1,1,0,0,1-1.39.07Z"/><path class="cls-1" d="M136.16,199.34c-28.84,68.7,107.22,63.52,233,46.75"/><path class="cls-2" d="M142.62,202.05a50,50,0,0,0-2.5,7A29.8,29.8,0,0,0,139,216a22.14,22.14,0,0,0,.66,6.45,18.78,18.78,0,0,0,2.67,5.77,26.55,26.55,0,0,0,4.55,5.06,41.3,41.3,0,0,0,6,4.22,63.17,63.17,0,0,0,7,3.42c2.44,1,4.93,1.93,7.51,2.72A174.37,174.37,0,0,0,199.74,250c11.08,1.24,22.32,1.83,33.58,2.09,22.53.45,45.18-.46,67.78-2s45.21-3.79,67.77-6.41a2.5,2.5,0,0,1,.66,4.95c-22.52,3.38-45.11,6.36-67.81,8.69s-45.5,4-68.45,4.27c-11.48.12-23-.1-34.54-1A184.9,184.9,0,0,1,164,254.87c-2.89-.78-5.76-1.75-8.62-2.8a76.86,76.86,0,0,1-8.47-3.83,54.5,54.5,0,0,1-8.1-5.28,39.18,39.18,0,0,1-7-7.36,31.89,31.89,0,0,1-4.77-9.48,35.17,35.17,0,0,1-1.46-10.4,43.1,43.1,0,0,1,1.23-9.95,65.4,65.4,0,0,1,2.91-9.14,7,7,0,1,1,13.09,5l-.06.16Z"/></g></g></svg>